<?xml version="1.0" standalone="no"?>
<!DOCTYPE svg PUBLIC "-//W3C//DTD SVG 20010904//EN"
 "http://www.w3.org/TR/2001/REC-SVG-20010904/DTD/svg10.dtd">
<svg version="1.0" xmlns="http://www.w3.org/2000/svg"
 width="690.000000pt" height="704.000000pt" viewBox="0 0 690.000000 704.000000"
 preserveAspectRatio="xMidYMid meet">

<g transform="translate(0.000000,704.000000) scale(0.100000,-0.100000)"
fill="#000000" stroke="none">
<path d="M2604 6448 c3 -13 6 -31 6 -40 0 -25 26 -22 45 5 15 21 14 23 -6 40
-31 25 -53 22 -45 -5z"/>
<path d="M2736 6453 c-13 -13 -6 -64 10 -70 20 -7 49 21 41 41 -7 18 -42 38
-51 29z"/>
<path d="M2877 6434 c-6 -7 4 -54 14 -60 11 -7 60 26 54 36 -6 10 -62 30 -68
24z"/>
<path d="M3337 6364 c-10 -10 12 -44 27 -44 8 0 16 6 19 14 9 23 -28 48 -46
30z"/>
<path d="M4160 5258 c0 -9 -16 -13 -58 -13 -36 0 -68 -6 -87 -17 -16 -10 -46
-18 -65 -18 -42 -1 -126 -21 -199 -49 -65 -25 -160 -107 -181 -158 -5 -13 -16
-23 -24 -23 -32 0 -118 -64 -138 -104 -20 -39 -58 -92 -141 -196 -42 -52 -98
-166 -127 -255 -7 -22 -20 -53 -28 -70 -25 -46 -40 -92 -63 -185 -11 -47 -25
-96 -31 -110 -8 -21 -19 -139 -19 -214 0 -10 7 -26 16 -36 19 -21 16 -55 -4
-55 -7 0 -18 15 -25 34 -31 95 -47 14 -50 -254 -1 -94 -5 -175 -9 -182 -4 -6
-12 -33 -17 -60 -6 -26 -16 -76 -24 -110 -11 -53 -11 -64 0 -74 11 -9 14 -8
14 1 0 56 38 248 69 350 21 69 42 139 47 155 7 26 9 20 14 -38 6 -58 11 -72
38 -100 18 -18 59 -49 92 -68 53 -30 60 -37 60 -66 0 -25 -11 -43 -50 -83 -27
-27 -53 -50 -57 -50 -9 0 -37 -59 -31 -65 2 -3 13 -6 24 -8 23 -3 27 -8 20
-27 -23 -66 -26 -202 -6 -215 5 -3 23 9 41 26 l34 32 25 -34 c14 -18 45 -54
70 -79 25 -25 61 -64 81 -86 45 -48 86 -82 119 -97 14 -6 33 -17 42 -25 10 -8
24 -12 32 -9 8 3 32 -2 53 -12 21 -10 45 -21 53 -25 35 -15 -111 6 -175 26
-38 11 -72 20 -75 20 -3 0 -13 4 -22 9 -13 7 -18 6 -18 -5 0 -8 5 -18 10 -21
19 -12 10 -35 -13 -35 -23 0 -53 -41 -40 -54 4 -3 8 -20 10 -37 4 -44 31 -73
93 -105 30 -15 61 -34 68 -41 7 -7 20 -13 28 -13 8 0 14 -7 14 -15 0 -8 3 -14
8 -14 20 3 23 -3 11 -18 -8 -9 -9 -14 -3 -10 16 9 64 -15 64 -32 0 -11 4 -9
15 5 8 10 15 15 15 10 0 -6 7 -1 16 10 15 18 15 18 8 -5 -4 -17 -3 -22 7 -19
8 3 14 11 14 19 0 22 34 31 64 16 44 -21 38 -47 -21 -93 -47 -36 -56 -40 -83
-31 -29 9 -96 23 -143 31 -37 6 -88 37 -98 60 -5 11 -16 19 -24 17 -8 -2 -28
-4 -45 -5 -16 -1 -32 -4 -36 -8 -3 -5 -22 1 -44 12 -21 11 -43 16 -48 13 -6
-4 -3 -9 7 -13 16 -5 16 -7 2 -19 -13 -11 -21 -11 -48 2 -49 24 -98 75 -105
109 -3 16 -12 32 -19 35 -8 3 -11 9 -8 14 3 5 1 9 -4 9 -22 0 -71 59 -83 101
-17 60 -23 65 -56 48 -99 -50 -274 -146 -308 -169 -36 -24 -48 -26 -110 -23
-38 1 -90 5 -115 8 -25 3 -52 4 -60 4 -8 -1 -67 0 -130 2 -200 5 -230 3 -246
-17 -13 -18 -15 -18 -25 -1 -11 19 -44 23 -54 7 -3 -5 -23 -10 -43 -10 -36 0
-200 -40 -254 -61 -16 -6 -28 -15 -28 -20 0 -5 -4 -9 -10 -9 -9 0 -70 -39
-140 -87 -33 -24 -120 -113 -120 -124 0 -5 -24 -36 -54 -68 -30 -33 -62 -74
-72 -93 -9 -18 -38 -60 -64 -93 -26 -33 -71 -95 -101 -139 -30 -43 -71 -102
-91 -130 -55 -76 -114 -176 -127 -216 -6 -19 -26 -60 -45 -91 -19 -31 -37 -67
-41 -80 -4 -13 -18 -37 -31 -52 -13 -16 -24 -36 -24 -46 0 -9 -14 -38 -30 -64
-17 -26 -42 -71 -56 -100 -15 -29 -37 -65 -51 -82 -37 -47 -148 -212 -197
-295 -24 -41 -58 -88 -75 -104 -18 -18 -40 -58 -57 -105 -20 -54 -43 -94 -80
-136 -62 -72 -74 -94 -74 -134 l0 -31 3058 2 3057 3 9 100 c15 165 -12 426
-54 530 -5 11 -11 36 -14 55 -9 56 -13 74 -22 94 -5 14 -4 17 4 12 7 -4 12
-14 12 -22 0 -8 5 -14 11 -14 17 0 4 240 -16 315 -43 154 -119 275 -210 334
-35 23 -77 57 -92 76 -21 25 -46 40 -92 55 -35 11 -71 20 -80 21 -9 0 -29 9
-46 19 -16 11 -45 27 -63 36 -38 19 -48 32 -34 46 6 6 22 6 46 0 34 -10 36 -9
33 11 -3 28 -15 47 -28 47 -6 0 -7 -5 -4 -10 10 -16 -55 -7 -98 14 -21 11 -43
30 -48 43 -4 12 -15 23 -22 23 -8 0 -22 9 -32 20 -12 13 -31 20 -57 20 -21 0
-38 5 -38 11 0 5 4 8 9 5 4 -3 16 1 26 8 17 12 16 14 -10 20 -15 4 -32 3 -38
-3 -11 -11 -39 0 -72 29 -11 10 -27 17 -36 17 -8 0 -29 9 -45 20 -75 51 -113
73 -158 93 -49 21 -110 29 -123 17 -3 -4 1 -7 10 -7 10 0 17 -4 17 -9 0 -9
-120 -24 -128 -16 -7 7 19 35 33 35 7 0 18 6 24 14 6 7 31 19 56 26 58 16 74
35 51 58 -19 19 -68 21 -197 7 l-76 -8 -7 27 c-5 22 -10 25 -31 20 -15 -4 -25
-2 -25 4 0 6 29 54 65 107 36 52 65 103 65 112 0 9 6 24 14 32 7 9 25 36 40
61 17 27 26 36 23 22 -10 -43 64 -83 90 -50 19 26 6 89 -25 117 -25 22 -28 29
-18 46 15 28 28 35 49 29 14 -4 17 1 17 31 0 25 4 35 13 32 7 -2 11 -16 9 -33
-1 -16 2 -36 8 -44 9 -13 13 -11 30 10 11 14 20 33 20 43 0 9 3 17 8 17 4 0
18 20 31 45 13 26 37 55 53 66 43 31 85 98 113 184 24 70 25 79 11 94 -22 25
-20 38 8 45 16 4 28 17 35 38 6 18 22 46 36 62 14 16 25 42 25 57 0 16 9 59
21 96 59 196 73 239 78 248 9 16 30 100 25 104 -2 2 -10 -2 -18 -8 -13 -11
-15 -6 -14 31 0 30 3 37 8 23 7 -18 9 -17 20 10 20 49 42 99 51 117 12 24 12
25 -11 31 -18 5 -20 12 -16 57 2 28 6 53 9 56 3 3 3 23 0 45 -4 24 -1 45 7 54
11 13 10 14 -4 9 -25 -9 -52 4 -38 18 14 14 16 78 3 78 -6 0 -7 17 -5 38 4 27
3 33 -5 22 -13 -18 -23 -9 -25 24 -3 52 -26 19 -26 -37 0 -18 -8 -44 -18 -60
l-19 -27 5 78 c4 64 1 84 -13 106 -10 15 -13 26 -6 26 6 0 11 4 11 10 0 12
-22 9 -31 -4 -9 -12 -42 1 -34 13 3 6 12 8 20 5 9 -4 18 2 23 17 l9 23 12 -22
c17 -32 33 -28 20 5 -5 14 -8 32 -5 39 7 19 -28 56 -42 42 -7 -7 -16 2 -31 35
-12 25 -25 49 -31 52 -13 8 -43 -22 -35 -35 11 -17 -15 -11 -45 12 -17 12 -30
27 -30 33 0 14 -76 65 -97 65 -8 0 -26 9 -40 19 -13 11 -31 17 -40 14 -10 -4
-14 -2 -10 4 4 6 -18 36 -48 66 -30 30 -55 60 -55 66 0 16 3 15 49 -30 24 -22
48 -38 54 -36 24 8 18 38 -13 67 -35 32 -64 42 -37 12 10 -10 17 -23 17 -27 0
-5 -30 20 -66 55 -37 36 -64 60 -60 54 3 -7 0 -14 -8 -17 -8 -3 -19 5 -26 19
-16 29 -44 33 -35 5 5 -18 4 -18 -30 -3 -21 10 -35 23 -35 34 0 13 -8 18 -28
18 -15 0 -34 6 -41 13 -11 10 -13 9 -9 -2 2 -8 19 -22 36 -30 30 -15 50 -46
38 -58 -6 -6 -172 73 -181 87 -3 5 -11 7 -18 4 -7 -2 -22 5 -33 17 l-19 22 40
-7 c21 -4 52 -17 68 -28 15 -11 31 -18 34 -15 11 12 -6 35 -32 41 -15 4 -36
15 -47 26 -12 11 -43 21 -79 25 -32 4 -62 12 -66 17 -4 8 11 9 48 4 l54 -7
-30 21 c-16 11 -40 20 -53 20 -18 0 -23 5 -20 22 2 11 -3 23 -9 25 -7 3 -13
-1 -13 -9z m-56 -43 c3 -8 1 -15 -4 -15 -6 0 -10 7 -10 15 0 8 2 15 4 15 2 0
6 -7 10 -15z m56 -25 c0 -5 -7 -10 -15 -10 -8 0 -15 5 -15 10 0 6 7 10 15 10
8 0 15 -4 15 -10z m-102 -72 c14 -14 16 -48 3 -48 -17 0 -40 30 -35 45 7 18
16 19 32 3z m207 -38 c22 -10 33 -19 25 -19 -8 0 -33 8 -55 18 -22 11 -33 19
-25 19 8 0 33 -8 55 -18z m359 -117 c16 21 26 22 26 2 0 -8 -7 -15 -17 -15
-14 0 -14 -2 2 -20 24 -27 7 -26 -22 2 -13 12 -23 31 -22 42 0 19 1 18 10 -4
10 -23 11 -24 23 -7z m-114 -28 c16 -19 0 -19 -26 0 -16 12 -16 14 -3 15 9 0
22 -7 29 -15z m194 -44 c-7 -7 -34 21 -28 31 3 5 12 1 19 -9 7 -10 12 -20 9
-22z m-44 -36 c8 -10 10 -19 4 -25 -5 -5 -14 1 -21 16 -12 27 -2 32 17 9z
m263 -191 c26 -9 47 -20 47 -25 0 -5 18 -18 40 -29 22 -11 40 -25 40 -30 0 -5
14 -16 30 -25 30 -15 30 -15 30 10 0 14 5 25 11 25 20 0 5 -64 -17 -74 l-22
-10 22 -17 c11 -10 17 -21 12 -26 -4 -4 -15 2 -25 15 -54 75 -76 97 -137 138
-104 70 -106 74 -31 48z m-133 -3 c0 -5 10 -12 23 -15 27 -8 93 -63 85 -72 -4
-3 -36 17 -73 45 -36 28 -59 51 -51 51 9 0 16 -4 16 -9z m84 -97 c5 -14 4 -15
-9 -4 -17 14 -19 20 -6 20 5 0 12 -7 15 -16z m164 -180 c14 -4 21 -12 18 -20
-4 -9 2 -14 17 -14 27 0 52 -18 60 -42 7 -21 -13 -29 -40 -14 -23 12 -103 83
-103 91 0 7 20 6 48 -1z m127 -34 c3 -5 1 -10 -4 -10 -6 0 -11 5 -11 10 0 6 2
10 4 10 3 0 8 -4 11 -10z m-1597 -84 c26 -16 54 -24 92 -25 30 -1 59 -6 65
-10 5 -5 31 -8 58 -7 26 0 47 -2 47 -6 0 -5 9 -8 21 -8 21 0 49 -22 49 -38 0
-12 100 -76 100 -64 0 4 5 -1 11 -11 9 -16 19 -18 61 -12 42 6 52 4 69 -14 10
-11 19 -25 19 -31 0 -7 5 -10 12 -8 6 2 20 -4 31 -15 10 -10 25 -16 32 -13 22
8 67 -43 58 -68 -3 -12 -7 -30 -7 -41 -1 -27 -48 -55 -88 -53 -18 0 -42 -2
-53 -5 -11 -4 -54 -9 -96 -12 l-75 -5 -52 49 c-42 39 -66 52 -120 66 -37 10
-71 24 -75 32 -4 7 -15 13 -23 13 -8 0 -36 12 -62 26 -38 21 -65 28 -135 32
-95 5 -137 -6 -204 -56 -25 -18 -39 -22 -63 -17 -16 4 -30 10 -30 15 0 5 63
72 140 149 77 77 140 145 140 151 0 18 39 11 78 -14z m1712 -25 c0 -17 -4 -33
-10 -36 -5 -3 -10 3 -10 14 0 12 -5 21 -11 21 -8 0 -8 5 1 15 19 23 30 18 30
-14z m-10 -91 c0 -5 -4 -10 -10 -10 -5 0 -10 5 -10 10 0 6 5 10 10 10 6 0 10
-4 10 -10z m-122 -72 c-3 -7 -17 -15 -33 -16 -25 -3 -27 -2 -16 12 16 19 55
22 49 4z m51 -52 c-9 -8 -10 -7 -5 7 3 10 7 24 7 30 1 7 3 4 6 -7 3 -10 -1
-23 -8 -30z m-2162 -113 c-3 -10 -5 -2 -5 17 0 19 2 27 5 18 2 -10 2 -26 0
-35z m1279 0 c-10 -10 -19 5 -10 18 6 11 8 11 12 0 2 -7 1 -15 -2 -18z m-1046
-11 c0 -8 8 -20 17 -27 15 -11 15 -13 -4 -19 -23 -8 -43 -46 -43 -84 0 -16 -4
-32 -9 -37 -6 -6 10 -32 44 -70 93 -103 116 -125 131 -125 8 0 22 -4 32 -9 54
-29 92 -39 135 -38 34 2 46 6 42 15 -6 16 36 13 48 -3 4 -6 11 -4 17 5 5 8 10
11 10 6 0 -6 6 -1 14 10 10 13 14 14 13 4 -3 -18 -103 -152 -122 -163 -8 -4
-17 -2 -21 4 -5 8 -3 9 7 4 8 -5 11 -4 6 1 -5 5 -77 9 -160 10 l-152 0 -85 41
c-47 23 -94 51 -104 62 -25 27 -31 96 -16 178 13 71 31 109 62 131 10 7 18 24
18 38 0 38 27 82 52 86 37 6 68 -3 68 -20z m180 -141 c0 -12 -29 -23 -41 -15
-18 10 -9 24 16 24 14 0 25 -4 25 -9z m1823 -56 c4 -8 2 -17 -3 -20 -6 -4 -10
3 -10 14 0 25 6 27 13 6z m-1923 -20 c0 -16 -25 -37 -33 -28 -4 3 -7 16 -7 29
0 17 4 21 20 17 11 -3 20 -11 20 -18z m1353 -49 c9 -3 23 -8 31 -10 21 -7 33
-96 26 -189 -1 -9 -6 -15 -11 -11 -6 3 -8 12 -5 20 3 8 1 14 -4 14 -5 0 -15
19 -22 43 -6 23 -14 44 -18 47 -3 3 -11 16 -19 30 -8 14 -20 35 -28 47 -14 20
-13 22 9 19 13 -2 31 -6 41 -10z m-771 -83 c18 -16 25 -73 9 -73 -5 0 -11 -8
-15 -17 -3 -10 -17 -33 -30 -51 -14 -18 -23 -42 -21 -54 3 -11 -2 -30 -10 -42
-8 -11 -15 -28 -15 -38 0 -9 -7 -24 -16 -32 -8 -9 -12 -20 -9 -26 3 -5 0 -10
-8 -10 -8 0 -18 -10 -22 -22 -19 -65 -22 -87 -12 -97 7 -7 5 -12 -6 -17 -9 -3
-14 -11 -11 -16 4 -6 -7 -1 -24 12 -26 20 -34 21 -63 11 -17 -6 -33 -11 -35
-11 -1 0 -20 16 -41 36 -21 20 -55 47 -75 60 -41 26 -50 63 -25 97 16 23 66
36 102 25 34 -9 39 -5 54 43 6 19 25 45 41 57 16 12 49 48 72 80 69 94 120
121 160 85z m943 -203 c3 -5 2 -10 -4 -10 -5 0 -13 5 -16 10 -3 6 -2 10 4 10
5 0 13 -4 16 -10z m-138 -22 c-3 -8 -6 -5 -6 6 -1 11 2 17 5 13 3 -3 4 -12 1
-19z m-522 -145 c17 -1 79 -6 140 -12 60 -6 118 -8 127 -5 10 3 18 0 18 -6 0
-7 6 -8 17 -2 11 7 30 3 60 -10 25 -11 51 -17 60 -14 21 8 10 -33 -23 -90 -37
-63 -51 -70 -133 -65 -21 1 -22 3 -10 17 12 15 11 16 -8 10 -19 -6 -21 -4 -18
16 3 13 12 28 20 34 14 10 14 12 0 18 -9 3 -26 0 -38 -6 -12 -7 -24 -13 -27
-13 -3 -1 -15 -5 -28 -9 -19 -6 -21 -10 -11 -22 11 -13 8 -14 -17 -8 -16 4
-48 18 -71 31 -24 14 -43 22 -43 19 0 -4 -9 -2 -20 4 -11 6 -20 15 -20 21 0 6
-9 18 -20 27 -16 13 -19 24 -14 49 4 21 11 30 18 26 6 -4 25 -8 41 -10z m535
-1 c0 -5 14 -6 31 -4 31 5 31 4 26 -29 -8 -50 -27 -121 -38 -143 -6 -10 -12
-27 -15 -39 -2 -11 -15 -37 -29 -57 -14 -20 -25 -43 -25 -51 0 -8 -20 -48 -45
-88 -25 -40 -45 -77 -45 -82 0 -5 -6 -12 -14 -15 -9 -3 -12 -13 -9 -22 14 -41
-65 66 -89 121 -11 24 -18 28 -40 23 -18 -3 -28 0 -32 10 -11 28 -6 38 9 18 8
-10 15 -14 15 -7 0 6 12 14 28 17 23 6 27 12 29 42 2 44 15 60 58 74 23 7 44
27 64 57 17 26 31 51 31 56 0 5 16 32 35 58 19 27 35 54 35 59 0 6 5 10 10 10
6 0 10 -4 10 -8z m-1267 -184 c9 1 17 -4 17 -9 0 -6 4 -8 9 -5 5 4 17 3 26 0
16 -6 16 -8 1 -16 -10 -5 -24 -5 -37 2 -15 9 -24 8 -35 0 -20 -17 -137 6 -160
31 -14 15 -14 19 -3 23 36 13 68 11 114 -7 28 -10 58 -19 68 -19z m1477 -72
c0 -14 -4 -28 -10 -31 -6 -4 -10 7 -10 24 0 17 5 31 10 31 6 0 10 -11 10 -24z
m-1565 -6 c3 -5 17 -10 29 -10 13 0 35 -9 50 -21 15 -11 33 -18 42 -15 9 3 32
-10 58 -34 34 -31 50 -39 77 -38 36 1 79 -16 79 -32 0 -6 19 -7 43 -4 35 5 45
3 50 -10 5 -12 14 -14 38 -9 38 7 50 -8 38 -50 -14 -48 -30 -60 -65 -46 -28
11 -80 18 -139 19 -42 1 -105 19 -105 30 0 6 -11 10 -24 10 -33 0 -96 28 -103
45 -3 8 -16 15 -29 15 -13 0 -32 9 -41 20 -10 11 -27 20 -39 20 -16 0 -24 10
-32 39 -16 53 -15 60 11 71 30 12 55 12 62 0z m-391 -590 c7 -46 44 -128 67
-150 9 -8 14 -20 12 -27 -2 -6 5 -17 16 -23 12 -6 21 -21 21 -35 0 -13 5 -25
11 -27 5 -2 11 -10 12 -18 2 -8 5 -19 8 -25 12 -21 18 -46 11 -41 -10 6 -10
-70 0 -79 4 -4 4 -15 -1 -24 -16 -33 -12 -87 9 -111 31 -35 34 -103 5 -108
-11 -2 -28 -11 -38 -20 -14 -13 -17 -13 -12 -1 4 10 -3 14 -30 14 -30 0 -35
-3 -35 -22 0 -14 -6 -23 -16 -23 -9 0 -21 -13 -27 -30 -6 -16 -15 -30 -19 -30
-10 0 -30 78 -24 89 3 5 2 31 -3 58 -29 150 -32 257 -16 463 9 112 19 208 21
212 10 16 21 -2 28 -42z m-984 30 c0 -5 -4 -10 -10 -10 -5 0 -10 5 -10 10 0 6
5 10 10 10 6 0 10 -4 10 -10z m110 -25 c0 -8 -4 -15 -10 -15 -5 0 -10 7 -10
15 0 8 5 15 10 15 6 0 10 -7 10 -15z m64 -229 c14 -45 20 -79 14 -82 -5 -3
-10 -4 -12 -3 -4 6 -56 187 -56 196 0 23 33 -45 54 -111z m-194 -350 c0 -22
-17 -28 -42 -15 l-23 13 25 7 c37 11 40 10 40 -5z m932 -231 c3 -13 0 -55 -6
-92 -7 -37 -11 -83 -10 -101 1 -25 -4 -37 -27 -53 -16 -11 -29 -17 -29 -12 0
5 -42 51 -94 103 -52 52 -92 98 -90 102 3 4 0 8 -6 8 -7 0 -10 5 -8 11 2 6 7
10 12 9 5 -1 12 4 17 11 4 7 21 12 38 12 19 0 28 4 24 11 -4 6 1 5 10 -3 12
-9 17 -10 17 -2 0 7 5 9 11 5 8 -4 7 -9 -2 -15 -10 -6 -11 -11 -3 -19 8 -8 16
-7 27 5 9 9 30 17 46 18 16 1 27 5 25 9 -4 7 13 16 32 17 7 1 14 -10 16 -24z
m83 -85 c8 0 15 -7 15 -16 0 -19 -57 -94 -72 -94 -11 0 -3 66 15 118 10 29 12
31 19 12 4 -11 14 -20 23 -20z"/>
<path d="M4460 3111 c0 -6 5 -13 10 -16 6 -3 10 1 10 9 0 9 -4 16 -10 16 -5 0
-10 -4 -10 -9z"/>
<path d="M4480 3041 c0 -5 -8 -12 -17 -14 -14 -4 -13 -5 3 -6 12 0 24 6 28 14
3 8 1 15 -4 15 -6 0 -10 -4 -10 -9z"/>
<path d="M4220 5246 c0 -2 9 -6 20 -9 11 -3 18 -1 14 4 -5 9 -34 13 -34 5z"/>
<path d="M4310 5236 c0 -2 7 -7 16 -10 8 -3 12 -2 9 4 -6 10 -25 14 -25 6z"/>
<path d="M4334 5165 c48 -36 62 -43 50 -24 -7 12 12 9 71 -8 19 -5 19 -5 2 14
-21 24 -84 44 -113 37 -12 -3 -25 -1 -28 5 -4 6 -12 11 -17 11 -6 0 10 -16 35
-35z"/>
<path d="M4850 4831 c0 -5 5 -13 10 -16 6 -3 10 -2 10 4 0 5 -4 13 -10 16 -5
3 -10 2 -10 -4z"/>
<path d="M4910 4786 c0 -2 8 -10 18 -17 15 -13 16 -12 3 4 -13 16 -21 21 -21
13z"/>
<path d="M4992 4779 c2 -5 28 -24 58 -41 l55 -31 -24 27 c-14 14 -38 33 -55
41 -35 18 -39 18 -34 4z"/>
<path d="M5160 4678 c0 -18 18 -34 28 -24 3 4 -2 14 -11 23 -16 16 -17 16 -17
1z"/>
<path d="M6420 4672 c0 -5 21 -12 48 -14 26 -3 56 -8 67 -13 18 -7 19 -6 4 9
-18 19 -119 35 -119 18z"/>
<path d="M5241 4581 c9 -25 9 -35 0 -40 -9 -6 -8 -11 4 -21 8 -7 15 -18 15
-24 0 -7 8 -21 18 -32 10 -10 21 -28 25 -38 7 -19 8 -19 23 0 15 18 15 18 11
-9 -3 -19 0 -30 10 -34 25 -10 25 5 -3 62 -21 42 -32 55 -45 52 -10 -3 -20 2
-23 10 -9 22 -7 25 6 17 6 -4 1 10 -12 32 -33 56 -42 64 -29 25z"/>
<path d="M6605 4490 c-3 -5 -2 -10 4 -10 5 0 13 5 16 10 3 6 2 10 -4 10 -5 0
-13 -4 -16 -10z"/>
<path d="M5410 4456 c0 -2 11 -6 25 -8 13 -3 22 -1 19 3 -5 9 -44 13 -44 5z"/>
<path d="M5393 3533 c-7 -15 -13 -33 -13 -39 0 -7 -20 -27 -45 -45 -49 -35
-57 -52 -23 -47 13 2 29 15 36 31 15 30 39 35 57 11 8 -12 20 -15 44 -9 38 8
36 24 -5 39 -26 10 -29 15 -26 49 4 43 -8 48 -25 10z"/>
<path d="M5489 3420 c-19 -16 -40 -30 -47 -30 -9 0 -12 -12 -10 -37 3 -33 6
-38 28 -38 14 0 35 -6 47 -13 25 -14 79 -16 87 -3 4 5 -1 22 -11 38 -10 19
-14 37 -9 49 7 18 8 18 27 -5 10 -12 16 -27 13 -32 -8 -13 10 -11 24 3 20 20
14 33 -27 60 -62 41 -84 42 -122 8z"/>
<path d="M5975 3290 c3 -5 15 -10 27 -10 11 0 47 -7 79 -15 79 -21 98 -7 23
16 -64 20 -139 25 -129 9z"/>
<path d="M5313 3275 c0 -8 6 -15 14 -15 7 0 13 7 13 15 0 8 -6 15 -13 15 -8 0
-14 -7 -14 -15z"/>
<path d="M5798 3199 c-10 -5 -18 -13 -18 -17 0 -17 62 -43 94 -41 19 2 40 -2
48 -8 7 -6 54 -19 103 -27 50 -9 122 -23 160 -31 114 -25 328 -65 350 -65 21
0 60 36 47 43 -4 3 -54 16 -112 30 -58 14 -152 38 -210 53 -135 34 -185 44
-240 48 -25 2 -72 9 -105 15 -73 13 -95 13 -117 0z"/>
<path d="M6820 2981 c0 -23 4 -26 48 -36 29 -6 32 -5 32 18 0 17 -7 27 -22 31
-41 11 -58 7 -58 -13z"/>
<path d="M5580 2129 c0 -5 5 -7 10 -4 6 3 10 8 10 11 0 2 -4 4 -10 4 -5 0 -10
-5 -10 -11z"/>
<path d="M5623 2096 c-24 -28 -38 -32 -48 -16 -10 16 -25 12 -19 -5 4 -8 12
-15 19 -15 7 0 18 -7 25 -15 16 -20 49 -19 57 1 3 8 2 29 -3 45 l-9 31 -22
-26z"/>
<path d="M5503 2008 c-7 -13 26 -40 38 -32 5 3 9 11 9 18 0 17 -38 28 -47 14z"/>
<path d="M5510 1852 c0 -28 54 -52 180 -82 74 -17 236 -55 360 -85 124 -30
351 -83 505 -119 154 -36 295 -70 313 -75 l33 -9 -3 46 -3 46 -45 9 c-25 4
-90 19 -145 33 -182 46 -379 87 -415 85 -19 0 -93 13 -165 30 -71 16 -170 39
-220 50 -49 11 -103 25 -120 29 -16 5 -61 14 -100 20 -38 5 -88 14 -110 20
-50 12 -65 12 -65 2z"/>
<path d="M5403 1756 c9 -7 17 -19 17 -26 0 -10 3 -10 15 0 13 11 13 14 -2 26
-10 7 -25 13 -33 13 -12 0 -12 -2 3 -13z"/>
</g>
</svg>
